<svg height="511pt" viewBox="0 -27 511.99922 511" width="511pt" xmlns="http://www.w3.org/2000/svg"><path d="m362 398.5h-7.371094l-12.117187-68h1.691406c5.523437 0 10-4.476562 10-10 0-5.519531-4.476563-9.996094-10-9.996094h-5.253906l-10.695313-60h.410156c5.523438 0 10-4.480468 10-10 0-5.523437-4.476562-10-10-10h-3.972656l-9.269531-52h.910156c5.523438 0 10-4.480468 10-10 0-5.523437-4.476562-10-10-10h-4.472656l-7.84375-44h1.480469c5.523437 0 10-4.480468 10-10 0-5.523437-4.476563-10-10-10h-5.042969l-4.996094-28.023437c5.308594-.242188 9.542969-4.609375 9.542969-9.976563 0-5.523437-4.480469-10-10-10h-3.101562l-6.726563-37.753906c-.972656-5.4375-6.152344-9.058594-11.601563-8.089844-5.4375.96875-9.058593 6.160156-8.089843 11.597656l6.101562 34.246094h-31.167969l6.101563-34.246094c.96875-5.4375-2.652344-10.628906-8.089844-11.597656-5.441406-.964844-10.628906 2.652344-11.601562 8.089844l-6.726563 37.753906h-3.101562c-5.523438 0-10 4.476563-10 10 0 5.367188 4.230468 9.734375 9.539062 9.976563l-4.992187 28.023437h-5.046875c-5.519532 0-10 4.476563-10 10 0 5.519532 4.480468 10 10 10h1.480468l-7.839843 44h-4.472657c-5.523437 0-10 4.476563-10 10 0 5.519532 4.476563 10 10 10h.90625l-9.265624 52h-3.976563c-5.519531 0-10 4.476563-10 10 0 5.519532 4.480469 10 10 10h.414063l-10.695313 60h-5.257813c-5.519531 0-10 4.476563-10 9.996094 0 5.523438 4.480469 10 10 10h1.695313l-12.121094 68h-7.367187c-5.519532 0-10 4.480469-10 10 0 5.523438 4.480468 10 10 10h3.804687l-5.035156 28.246094c-.96875 5.4375 2.652344 10.632812 8.089844 11.601562.59375.101563 1.1875.15625 1.769531.15625 4.753906 0 8.96875-3.402344 9.832031-8.246094l5.660157-31.757812h38.878906c5.523437 0 10-4.476562 10-10 0-5.519531-4.476563-10-10-10h-35.316406l12.117187-68h132.398437l12.117188 68h-35.316406c-5.523438 0-10 4.480469-10 10 0 5.523438 4.476562 10 10 10h38.878906l5.660156 31.757812c.863282 4.84375 5.078125 8.246094 9.832032 8.246094.582031 0 1.175781-.054687 1.769531-.15625 5.4375-.96875 9.058593-6.164062 8.089843-11.601562l-5.035156-28.246094h3.804688c5.519531 0 10-4.476562 10-10 0-5.519531-4.476563-10-9.996094-10zm-125.148438-331.996094h38.296876l4.992187 28h-48.28125zm-8.554687 48h55.40625l7.839844 44h-71.089844zm-11.40625 64h78.21875l9.265625 52h-96.75zm-23.523437 132 10.691406-60h103.882812l10.691406 60zm0 0"/><path d="m510.421875 224.117188-3.816406-5.972657c2.835937-1.765625 4.726562-4.898437 4.726562-8.484375 0-5.519531-4.476562-10-10-10h-6.542969l-26.804687-41.933594c2.433594-1.824218 4.015625-4.71875 4.015625-7.996093 0-5.523438-4.480469-10-10-10h-5.519531l-23.058594-36.066407c1.894531-1.820312 3.078125-4.371093 3.078125-7.207031 0-5.523437-4.480469-10-10-10h-4.078125l-17.117187-26.777343c3.542968-1.539063 6.027343-5.066407 6.027343-9.175782 0-5.523437-4.476562-10-10-10h-8.285156l-22.621094-35.386718c-2.976562-4.652344-9.160156-6.015626-13.8125-3.039063-4.652343 2.972656-6.015625 9.15625-3.039062 13.8125l15.734375 24.613281h-18.640625l-12.644531-33.527344c-1.949219-5.167968-7.722657-7.78125-12.886719-5.828124-5.167969 1.945312-7.777344 7.714843-5.828125 12.882812l10.085937 26.742188c-4.425781 1.027343-7.726562 4.988281-7.726562 9.730468 0 5.523438 4.476562 10 10 10h5.167969l9.917968 26.300782c-4.269531 1.140624-7.421875 5.023437-7.421875 9.652343 0 5.523438 4.480469 10 10 10h4.835938l12.597656 33.40625c-4.777344.753907-8.433594 4.878907-8.433594 9.867188 0 5.519531 4.476563 10 10 10h5.925781l15.160157 40.195312c-4.4375 1.019531-7.75 4.988281-7.75 9.734375 0 5.523438 4.476562 10 10 10h5.191406l15.273437 40.496094c1.507813 4.007812 5.3125 6.476562 9.355469 6.476562 1.171875 0 2.367188-.210937 3.527344-.648437 5.167969-1.945313 7.777344-7.71875 5.828125-12.882813l-12.613281-33.441406h65.605469l9.734374 15.226563c1.910157 2.988281 5.136719 4.617187 8.4375 4.617187 1.84375 0 3.707032-.507812 5.375-1.574218 4.652344-2.976563 6.015626-9.160157 3.039063-13.8125zm-128.328125-163.613282 16.589844 25.953125h-30.6875l-9.785156-25.953125zm29.375 45.953125 21.273438 33.273438h-44.652344l-12.550782-33.273438zm-.78125 93.203125-15.058594-39.929687h49.898438l25.527344 39.929687zm0 0"/><path d="m122.582031 199.925781 15.160157-40.195312h5.925781c5.523437 0 10-4.476563 10-10 0-4.988281-3.65625-9.109375-8.433594-9.863281l12.597656-33.410157h4.835938c5.523437 0 10-4.476562 10-10 0-4.628906-3.152344-8.511719-7.421875-9.652343l9.917968-26.300782h5.167969c5.523438 0 10-4.476562 10-10 0-4.738281-3.300781-8.699218-7.726562-9.730468l10.085937-26.742188c1.949219-5.164062-.660156-10.933594-5.828125-12.882812-5.167969-1.949219-10.9375.660156-12.886719 5.828124l-12.644531 33.527344h-18.640625l15.734375-24.613281c2.976563-4.652344 1.613281-10.835937-3.039062-13.8125-4.652344-2.976563-10.835938-1.613281-13.8125 3.039063l-22.621094 35.386718h-8.285156c-5.523438 0-10 4.476563-10 10 0 4.109375 2.480469 7.636719 6.027343 9.175782l-17.117187 26.777343h-4.078125c-5.519531 0-10 4.480469-10 10 0 2.835938 1.183594 5.386719 3.078125 7.207031l-23.058594 36.066407h-5.519531c-5.523438 0-10 4.476562-10 10 0 3.277343 1.582031 6.171875 4.015625 7.996093l-26.808594 41.933594h-6.539062c-5.523438 0-10 4.480469-10 10 0 3.585938 1.890625 6.71875 4.722656 8.484375l-3.816406 5.972657c-2.972657 4.652343-1.6132815 10.835937 3.042969 13.8125 1.667968 1.066406 3.53125 1.574218 5.375 1.574218 3.296874 0 6.527343-1.628906 8.433593-4.617187l9.734375-15.226563h65.605469l-12.609375 33.441406c-1.949219 5.164063.660156 10.9375 5.828125 12.882813 1.160156.4375 2.355469.648437 3.527344.648437 4.039062 0 7.847656-2.46875 9.355469-6.476562l15.273437-40.496094h5.191406c5.523438 0 10-4.476562 10-10 0-4.746094-3.3125-8.710937-7.75-9.734375zm7.324219-139.421875h23.882812l-9.789062 25.953125h-30.6875zm-29.378906 45.953125h35.933594l-12.550782 33.273438h-44.652344zm-59.582032 93.203125 25.527344-39.929687h49.894532l-15.058594 39.929687zm0 0"/><path d="m256 398.5c-2.632812 0-5.210938 1.070312-7.070312 2.929688-1.859376 1.863281-2.929688 4.441406-2.929688 7.070312 0 2.632812 1.066406 5.210938 2.929688 7.070312 1.859374 1.859376 4.4375 2.929688 7.070312 2.929688 2.628906 0 5.210938-1.070312 7.066406-2.929688 1.863282-1.859374 2.933594-4.4375 2.933594-7.070312 0-2.628906-1.070312-5.207031-2.933594-7.070312-1.855468-1.859376-4.4375-2.929688-7.066406-2.929688zm0 0"/></svg>